<svg width="25" height="24" viewBox="0 0 25 24" fill="none" xmlns="http://www.w3.org/2000/svg">
<path d="M12.4766 2.25C14.5318 2.25 16.4327 2.64999 18.1792 3.44998C19.9257 4.24997 21.3065 5.3378 22.3213 6.71344C23.3363 8.08903 23.8438 9.58955 23.8438 11.2149C23.8438 12.8403 23.3363 14.3429 22.3213 15.7228C21.3065 17.1027 19.9278 18.1926 18.1855 18.9926C16.4432 19.7925 14.5402 20.1926 12.4766 20.1926C11.8253 20.1926 11.1529 20.146 10.4594 20.0529C7.44842 22.1438 5.84572 23.202 5.65119 23.2274C5.55814 23.2613 5.46931 23.257 5.38475 23.2147C5.35091 23.1893 5.32555 23.1555 5.30863 23.1131C5.2917 23.0708 5.28327 23.0327 5.28327 22.9988V22.9481C5.33403 22.6179 5.71883 21.2423 6.43775 18.8212C4.8054 18.0085 3.50925 16.9313 2.5493 15.5895C1.58935 14.2477 1.10938 12.7895 1.10938 11.2149C1.10938 9.58955 1.61684 8.08903 2.63177 6.71344C3.6467 5.3378 5.02742 4.24997 6.77394 3.44998C8.52045 2.64999 10.4213 2.25 12.4766 2.25Z" fill="black"/>
</svg>
