<svg width="101" height="100" viewBox="0 0 101 100" fill="none" xmlns="http://www.w3.org/2000/svg">
<path d="M50.5002 72.9167C55.7085 72.9167 60.1356 71.0938 63.7814 67.4479C67.4272 63.8021 69.2502 59.375 69.2502 54.1667C69.2502 48.9583 67.4272 44.5312 63.7814 40.8854C60.1356 37.2396 55.7085 35.4167 50.5002 35.4167C45.2918 35.4167 40.8647 37.2396 37.2189 40.8854C33.5731 44.5312 31.7502 48.9583 31.7502 54.1667C31.7502 59.375 33.5731 63.8021 37.2189 67.4479C40.8647 71.0938 45.2918 72.9167 50.5002 72.9167ZM50.5002 64.5833C47.5835 64.5833 45.1182 63.5764 43.1043 61.5625C41.0904 59.5486 40.0835 57.0833 40.0835 54.1667C40.0835 51.25 41.0904 48.7847 43.1043 46.7708C45.1182 44.7569 47.5835 43.75 50.5002 43.75C53.4168 43.75 55.8821 44.7569 57.896 46.7708C59.9099 48.7847 60.9168 51.25 60.9168 54.1667C60.9168 57.0833 59.9099 59.5486 57.896 61.5625C55.8821 63.5764 53.4168 64.5833 50.5002 64.5833ZM17.1668 87.5C14.8752 87.5 12.9134 86.684 11.2814 85.0521C9.64947 83.4201 8.8335 81.4583 8.8335 79.1667V29.1667C8.8335 26.875 9.64947 24.9132 11.2814 23.2812C12.9134 21.6493 14.8752 20.8333 17.1668 20.8333H30.2918L38.0002 12.5H63.0002L70.7085 20.8333H83.8335C86.1252 20.8333 88.087 21.6493 89.7189 23.2812C91.3509 24.9132 92.1668 26.875 92.1668 29.1667V79.1667C92.1668 81.4583 91.3509 83.4201 89.7189 85.0521C88.087 86.684 86.1252 87.5 83.8335 87.5H17.1668ZM17.1668 79.1667H83.8335V29.1667H66.9585L59.3543 20.8333H41.646L34.0418 29.1667H17.1668V79.1667Z" fill="#367B4D"/>
</svg>
