<svg width="101" height="100" viewBox="0 0 101 100" fill="none" xmlns="http://www.w3.org/2000/svg">
<path d="M46.3332 20.8337V4.16699H54.6665V20.8337H46.3332ZM74.0415 32.292L68.3123 26.5628L79.979 14.5837L85.8123 20.5212L74.0415 32.292ZM79.6665 54.167V45.8337H96.3332V54.167H79.6665ZM46.3332 95.8337V79.167H54.6665V95.8337H46.3332ZM26.9582 32.0837L15.0832 20.5212L21.0207 14.6878L32.7915 26.4587L26.9582 32.0837ZM79.8748 85.417L68.3123 73.4378L73.9373 67.8128L85.8123 79.2712L79.8748 85.417ZM4.6665 54.167V45.8337H21.3332V54.167H4.6665ZM21.0207 85.417L15.1873 79.4795L26.854 67.8128L29.8748 70.6253L32.8957 73.542L21.0207 85.417ZM50.4998 75.0003C43.5554 75.0003 37.6526 72.5698 32.7915 67.7087C27.9304 62.8475 25.4998 56.9448 25.4998 50.0003C25.4998 43.0559 27.9304 37.1531 32.7915 32.292C37.6526 27.4309 43.5554 25.0003 50.4998 25.0003C57.4443 25.0003 63.3471 27.4309 68.2082 32.292C73.0693 37.1531 75.4998 43.0559 75.4998 50.0003C75.4998 56.9448 73.0693 62.8475 68.2082 67.7087C63.3471 72.5698 57.4443 75.0003 50.4998 75.0003ZM50.4998 66.667C55.0832 66.667 59.0068 65.035 62.2707 61.7712C65.5346 58.5073 67.1665 54.5837 67.1665 50.0003C67.1665 45.417 65.5346 41.4934 62.2707 38.2295C59.0068 34.9656 55.0832 33.3337 50.4998 33.3337C45.9165 33.3337 41.9929 34.9656 38.729 38.2295C35.4651 41.4934 33.8332 45.417 33.8332 50.0003C33.8332 54.5837 35.4651 58.5073 38.729 61.7712C41.9929 65.035 45.9165 66.667 50.4998 66.667Z" fill="#FF5F00"/>
</svg>
