<svg width="101" height="100" viewBox="0 0 101 100" fill="none" xmlns="http://www.w3.org/2000/svg">
<path d="M51.6457 79.1663C52.479 79.0969 53.1915 78.7663 53.7832 78.1747C54.3748 77.583 54.6693 76.8719 54.6665 76.0413C54.6665 75.0691 54.354 74.2886 53.729 73.6997C53.104 73.1108 52.3054 72.8497 51.3332 72.9163C48.486 73.1247 45.4651 72.3441 42.2707 70.5747C39.0762 68.8052 37.0623 65.5927 36.229 60.9372C36.0901 60.1733 35.7262 59.5483 35.1373 59.0622C34.5484 58.5761 33.8707 58.333 33.104 58.333C32.1318 58.333 31.3332 58.6983 30.7082 59.4288C30.0832 60.1594 29.8748 61.0094 30.0832 61.9788C31.2637 68.2983 34.0415 72.8122 38.4165 75.5205C42.7915 78.2288 47.2012 79.4441 51.6457 79.1663ZM50.4998 91.6663C40.986 91.6663 33.0526 88.4025 26.6998 81.8747C20.3471 75.3469 17.1693 67.2219 17.1665 57.4997C17.1665 50.5552 19.9276 43.0038 25.4498 34.8455C30.9721 26.6872 39.3221 17.8497 50.4998 8.33301C61.6804 17.8469 70.0318 26.6844 75.554 34.8455C81.0762 43.0066 83.836 50.558 83.8332 57.4997C83.8332 67.2219 80.6568 75.3469 74.304 81.8747C67.9512 88.4025 60.0165 91.6663 50.4998 91.6663Z" fill="#85A0D3"/>
</svg>
